Coordinates
version=1
nRows=5
nColumns=40
inDegrees=yes

Units are S.I. units (second, meters, Newtons, ...)
Angles are in degrees.

endheader
time	pelvis_tilt	pelvis_list	pelvis_rotation	pelvis_tx	pelvis_ty	pelvis_tz	hip_flexion_r	hip_adduction_r	hip_rotation_r	knee_angle_r	knee_angle_r_beta	ankle_angle_r	subtalar_angle_r	mtp_angle_r	hip_flexion_l	hip_adduction_l	hip_rotation_l	knee_angle_l	knee_angle_l_beta	ankle_angle_l	subtalar_angle_l	mtp_angle_l	lumbar_extension	lumbar_bending	lumbar_rotation	arm_flex_r	arm_add_r	arm_rot_r	elbow_flex_r	pro_sup_r	wrist_flex_r	wrist_dev_r	arm_flex_l	arm_add_l	arm_rot_l	elbow_flex_l	pro_sup_l	wrist_flex_l	wrist_dev_l
      0.93000000	     -1.43616630	     12.98758341	     -4.25964397	      0.22109278	      0.94417866	     -1.49262803	      8.48071314	    -24.36893907	    -12.88382353	    -62.84278649	     -1.09681354	     -7.50280173	    -16.25608106	     14.40132832	     13.96182567	    -12.61882685	     10.45166755	    -14.96963257	     -0.26126938	      0.11175949	      9.42968293	      4.24209617	      3.02515259	    -10.95591733	      4.07150097	     -0.10387090	    -12.60441370	    -14.86131345	     44.35852799	     89.95437384	      0.00000000	      0.00000000	    -13.53619265	     10.71329623	      0.06733921	     11.22214702	     89.95437384	      0.00000000	      0.00000000
      0.94000000	     -1.30351373	     12.65572650	     -4.27642284	      0.23250609	      0.94645013	     -1.49312639	     10.43330114	    -23.70327310	    -12.13641260	    -64.16079440	     -1.11981711	     -6.14067161	    -17.12775190	     14.01937229	     12.58008741	    -12.40361098	     10.33541272	    -14.26470961	     -0.24896615	      0.43454598	      8.80598795	      4.11350386	      2.59942536	    -10.51933758	      3.59911067	      0.00938536	    -12.41070798	    -14.62941776	     43.02596551	     89.95437384	      0.00000000	      0.00000000	    -12.05916792	     11.06120322	      0.11740196	     12.02228153	     89.95437384	      0.00000000	      0.00000000
      0.95000000	     -1.33842208	     12.24594126	     -4.47019932	      0.24382373	      0.94835783	     -1.49312645	     12.63251014	    -22.73934931	    -11.10553094	    -65.14866928	     -1.13705878	     -4.80275097	    -17.61598067	     13.80763441	     11.29103465	    -12.03307243	     10.56537594	    -13.30296556	     -0.23218055	      0.62152429	      8.16373047	      3.99355811	      2.41181699	     -9.98741415	      3.26182771	      0.17641797	    -12.25037136	    -14.25457832	     41.59348224	     89.95437384	      0.00000000	      0.00000000	    -10.68751808	     11.38896833	      0.56338245	     13.00838965	     89.95437384	      0.00000000	      0.00000000
      0.96000000	     -1.39717776	     11.80275284	     -4.58252734	      0.25487763	      0.95003807	     -1.49318563	     14.75830994	    -21.74833802	    -10.35624274	    -65.82722251	     -1.14890177	     -3.52612925	    -17.91524229	     13.61234424	     10.07426702	    -11.63992178	     10.72408574	    -12.43389091	     -0.21701234	      0.86213510	      7.50529836	      3.85256732	      2.17829396	     -9.40346577	      2.90661784	      0.25263077	    -12.14640790	    -13.86570938	     40.32840372	     89.95437384	      0.00000000	      0.00000000	     -9.16674888	     11.74939148	      1.00508854	     13.85560604	     89.95437384	      0.00000000	      0.00000000
      0.97000000	     -1.52770209	     11.17413359	     -4.70619040	      0.26594508	      0.95145209	     -1.49304240	     16.83205895	    -20.46471942	     -9.71561172	    -66.19972839	     -1.15540322	     -1.86467554	    -17.92964755	     15.28627990	      9.06887591	    -10.83158581	     12.27217778	    -11.83571603	     -0.20657221	      0.87138725	      5.19702356	      3.13517076	      1.96771691	     -8.61223254	      2.33090582	      0.51536964	    -12.14489921	    -13.06617895	     39.00624281	     89.95437384	      0.00000000	      0.00000000	     -7.59667515	     11.76207583	      3.85956975	     14.42752624	     89.95437384	      0.00000000	      0.00000000
